<svg id="Camada_1" data-name="Camada 1" xmlns="http://www.w3.org/2000/svg" viewBox="0 0 747.93 150"><defs><style>.cls-1{fill:#fff;}</style></defs><polygon points="400 150 0 150 23.24 0 430.89 0 400 150"/><path class="cls-1" d="M18.44,122.28,38.92,16.88H59.85q17.92,0,26.8,8.73,7.53,7.23,7.53,20a63.76,63.76,0,0,1-3.24,19.87,35.6,35.6,0,0,1-9.71,15.81Q69.63,92,51.42,92h-.6l-5.88,30.27ZM65.72,41.72a5.9,5.9,0,0,0-4.36-1.65H60.9L55.33,68.83h.61a8.77,8.77,0,0,0,6.47-2.41q2.72-2.72,4.07-8.36a43.22,43.22,0,0,0,1.35-9.86Q67.83,43.83,65.72,41.72Z" transform="translate(4.8 0)"/><path class="cls-1" d="M83.79,122.28l20.48-105.4h26.8l-20.48,105.4Z" transform="translate(4.8 0)"/><path class="cls-1" d="M116.61,122.28l20.48-105.4h26.35l5.88,41.41,8.13-41.41H203.2l-20.48,105.4H157.57l-6.62-44-8.59,44Z" transform="translate(4.8 0)"/><path class="cls-1" d="M188.44,122.28l20.48-105.4h26.8L228,56.48h11.14l7.68-39.6h26.8l-20.47,105.4H226.38l7.83-40.2H223.07l-7.83,40.2Z" transform="translate(4.8 0)"/><path class="cls-1" d="M254.84,122.28,295.35,16.73h32.22l-.45,105.55h-26.2l.9-17H287.06l-5.72,17Zm39.45-38.85H303L304.83,52Z" transform="translate(4.8 0)"/><path class="cls-1" d="M355.42,124.24a44.84,44.84,0,0,1-25.44-8l5.12-26.2q12.64,8.58,20.32,8.58,7.38,0,7.38-6.47,0-3.92-6-10.09a85.35,85.35,0,0,1-11.44-15.14,30.33,30.33,0,0,1-3.77-15.13q0-17.16,10.84-28,8.88-8.88,23.34-8.88a45.36,45.36,0,0,1,23.49,6.32l-5.12,26.05q-10.55-6.76-17.92-6.77a8,8,0,0,0-5.49,1.8,6.14,6.14,0,0,0-2,4.82,7.66,7.66,0,0,0,1.21,4.37,64.15,64.15,0,0,0,4.82,5.87,95.13,95.13,0,0,1,11.59,15.29,29.5,29.5,0,0,1,3.77,15q0,16.86-10.84,27.7Q370.33,124.25,355.42,124.24Z" transform="translate(4.8 0)"/><path d="M445.14,122.28l20.48-105.4H492l5.87,41.41L506,16.88h25.75l-20.48,105.4H486.09l-6.62-44-8.58,44Z" transform="translate(4.8 0)"/><path d="M517,122.28l20.48-105.4h51l-5,25.44H559.27l-2.86,14.61h21.68l-4.81,24.69H551.59l-2.86,15.21h24.7l-5,25.45Z" transform="translate(4.8 0)"/><path d="M586.38,122.43l3.76-105.55H618l-5.58,56.61,17.77-56.61H652l-4.22,56.61,16.41-56.61h28L655,122.43H627.33l2-43.52-14.91,43.52Z" transform="translate(4.8 0)"/><path d="M699.31,124.24a44.85,44.85,0,0,1-25.45-8L679,90.06q12.64,8.58,20.33,8.58,7.38,0,7.38-6.47,0-3.92-6-10.09a85.84,85.84,0,0,1-11.44-15.14,30.32,30.32,0,0,1-3.76-15.13q0-17.16,10.84-28,8.88-8.88,23.34-8.88a45.36,45.36,0,0,1,23.49,6.32L738,47.29q-10.54-6.76-17.92-6.77a8,8,0,0,0-5.5,1.8,6.17,6.17,0,0,0-2,4.82,7.73,7.73,0,0,0,1.2,4.37,66,66,0,0,0,4.82,5.87,95.27,95.27,0,0,1,11.6,15.29,29.6,29.6,0,0,1,3.76,15q0,16.86-10.84,27.7Q714.21,124.25,699.31,124.24Z" transform="translate(4.8 0)"/></svg>