<svg id="univille_logo-desktop" xmlns="http://www.w3.org/2000/svg" width="482" height="109" viewBox="0 0 482 109">
  <g id="Grupo_2" data-name="Grupo 2">
    <path id="Caminho_6" data-name="Caminho 6" d="M112.6,53.75h-25c-10.952,0-24.992,9.412-24.992,25.072v28.789S112.6,107.875,112.6,53.75Z" fill="#005f36" fill-rule="evenodd"/>
    <path id="Caminho_7" data-name="Caminho 7" d="M6.461,53.75h25c10.95,0,25,9.412,25,25.072v28.789S6.461,107.875,6.461,53.75Z" fill="#005f36" fill-rule="evenodd"/>
    <path id="Caminho_8" data-name="Caminho 8" d="M6.461,53.75h25c10.95,0,25,9.412,25,25.072v28.789S6.461,107.875,6.461,53.75Z" fill="#005f36" fill-rule="evenodd"/>
    <path id="Caminho_9" data-name="Caminho 9" d="M31.46,0H0V47.272H31.46a32.448,32.448,0,0,1,25,12.608V37.47C56.456,11.249,40.7,0,31.46,0Z" fill="#81c45b" fill-rule="evenodd"/>
    <path id="Caminho_10" data-name="Caminho 10" d="M87.6,0h31.458V47.27H87.6A32.441,32.441,0,0,0,62.61,59.879V37.47C62.61,11.249,78.369,0,87.6,0Z" fill="#81c45b" fill-rule="evenodd"/>
  </g>
  <g id="Grupo_4" data-name="Grupo 4">
    <g id="Grupo_3" data-name="Grupo 3">
      <path id="Caminho_11" data-name="Caminho 11" d="M162.952,109c-15.139,0-24.076-10.017-24.076-24.255V53.427h13.877V85.167c0,3.06,1.051,10.334,10.2,10.334,6.1,0,10.515-4.326,10.515-10.334V53.427h13.879V84.745C187.347,98.561,177.672,109,162.952,109Z" fill="#005f36"/>
      <path id="Caminho_12" data-name="Caminho 12" d="M222.981,52.054c15.138,0,24.076,10.02,24.076,24.256v31.423H233.181V75.994c0-3.06-1.05-10.334-10.2-10.334-6.1,0-10.515,4.217-10.515,10.334v31.739H198.589V76.31C198.589,62.494,208.258,52.054,222.981,52.054Z" fill="#005f36"/>
      <path id="Caminho_13" data-name="Caminho 13" d="M259.559,47.522v-7.8a6.991,6.991,0,0,1,13.982,0v7.8Zm13.982,60.211H259.663V53.427h13.878Z" fill="#005f36"/>
      <path id="Caminho_14" data-name="Caminho 14" d="M315.693,107.733H300.766l-20.5-54.306h14.511L308.234,93.92,321.8,53.427h14.3Z" fill="#005f36"/>
      <path id="Caminho_15" data-name="Caminho 15" d="M342.817,47.522v-7.8a6.991,6.991,0,0,1,13.982,0v7.8ZM356.8,107.733H342.922V53.427H356.8Z" fill="#005f36"/>
      <path id="Caminho_16" data-name="Caminho 16" d="M368.881,29.279h13.987V84.956c0,7.7,3.467,10.439,10.3,10.017v12.655c-15.874,1.686-24.288-7.8-24.288-22.672Z" fill="#005f36"/>
      <path id="Caminho_17" data-name="Caminho 17" d="M399.157,29.279h13.986V84.956c0,7.7,3.467,10.439,10.3,10.017v12.655c-15.873,1.686-24.287-7.8-24.287-22.672Z" fill="#005f36"/>
      <path id="Caminho_18" data-name="Caminho 18" d="M481.58,90.44C478.423,101.511,468.858,109,455.4,109c-15.348,0-27.754-12.654-27.754-28.367S440.053,52.054,455.4,52.054c13.036,0,23.973,8.226,26.6,22.78L443.735,90.967a14.074,14.074,0,0,0,11.56,5.8c4.522,0,9.15-2,11.466-6.327Zm-15.554-21.3A13.633,13.633,0,0,0,455.3,64.288c-7.989,0-14.4,6.33-14.718,15.607Z" fill="#005f36"/>
    </g>
  </g>
</svg>
